<svg class="svg-icon" style="width: 1em; height: 1em;vertical-align: middle;fill: currentColor;overflow: hidden;" viewBox="0 0 1024 1024" version="1.1" xmlns="http://www.w3.org/2000/svg"><path d="M829.44 554.666667c-9.386667 0-19.2-2.986667-28.586667-5.12a402.773333 402.773333 0 0 1-55.893333-16.64 85.333333 85.333333 0 0 0-105.813333 42.666666l-9.386667 19.2a519.68 519.68 0 0 1-113.493333-85.333333 519.68 519.68 0 0 1-85.333334-113.493333l17.92-11.946667a85.333333 85.333333 0 0 0 42.666667-105.813333 440.746667 440.746667 0 0 1-16.64-55.893334c-2.133333-9.386667-3.84-19.2-5.12-29.013333a128 128 0 0 0-128-106.24h-128a128 128 0 0 0-128 145.493333 810.666667 810.666667 0 0 0 704.853333 702.293334h16.213334a128 128 0 0 0 85.333333-32.426667 128 128 0 0 0 42.666667-96v-128a128 128 0 0 0-105.386667-123.733333z m21.333333 256a42.666667 42.666667 0 0 1-14.506666 32 44.8 44.8 0 0 1-34.986667 10.666666A725.333333 725.333333 0 0 1 173.653333 222.72a46.506667 46.506667 0 0 1 10.666667-34.986667 42.666667 42.666667 0 0 1 32-14.506666h128a42.666667 42.666667 0 0 1 42.666667 33.706666q2.56 17.493333 6.4 34.56a474.453333 474.453333 0 0 0 19.626666 66.133334l-59.733333 27.733333a42.666667 42.666667 0 0 0-20.906667 56.746667 618.24 618.24 0 0 0 298.666667 298.666666 42.666667 42.666667 0 0 0 32.426667 0 42.666667 42.666667 0 0 0 24.32-22.186666l26.453333-59.733334a584.106667 584.106667 0 0 0 67.413333 19.626667q17.066667 3.84 34.56 6.4a42.666667 42.666667 0 0 1 33.706667 42.666667z"  /></svg>